STARTFONT 2.1
FONT -kiedtl-cursed_icons-medium-r-normal--18-180-75-75-C-90-ISO10646-1
SIZE 18 75 75
FONTBOUNDINGBOX 13 14 -2 -1
STARTPROPERTIES 19
FONTNAME_REGISTRY ""
FOUNDRY "kiedtl"
FAMILY_NAME "cursed_icons"
WEIGHT_NAME "medium"
SLANT "r"
SETWIDTH_NAME "normal"
ADD_STYLE_NAME ""
PIXEL_SIZE 18
POINT_SIZE 180
RESOLUTION_X 75
RESOLUTION_Y 75
SPACING "M"
AVERAGE_WIDTH 90
CHARSET_REGISTRY "ISO10646"
CHARSET_ENCODING "1"
DESTINATION 1
FONT_ASCENT 15
FONT_DESCENT 3
_GBDFED_INFO "Edited with gbdfed 1.6."
ENDPROPERTIES
CHARS 33
STARTCHAR U+e005
ENCODING 57349
SWIDTH 693 0
DWIDTH 13 0
BBX 11 12 -1 0
BITMAP
0300
0600
0400
3BC0
7FE0
FFE0
FF80
FF00
FF80
FFE0
7FE0
39C0
ENDCHAR
STARTCHAR U+e006
ENCODING 57350
SWIDTH 693 0
DWIDTH 13 0
BBX 0 0 0 0
BITMAP
ENDCHAR
STARTCHAR window
ENCODING 57360
SWIDTH 693 0
DWIDTH 13 0
BBX 11 11 -1 0
BITMAP
FFE0
FFE0
8020
A2A0
A2A0
A2A0
AAA0
AAA0
B4A0
8020
FFE0
ENDCHAR
STARTCHAR window
ENCODING 57361
SWIDTH 693 0
DWIDTH 13 0
BBX 11 11 -1 0
BITMAP
F1E0
F1E0
C060
C060
0000
0000
0000
C060
C060
F1E0
F1E0
ENDCHAR
STARTCHAR window
ENCODING 57362
SWIDTH 693 0
DWIDTH 13 0
BBX 11 11 -1 0
BITMAP
FFE0
FFE0
8020
A020
9020
8820
8820
9020
A7A0
8020
FFE0
ENDCHAR
STARTCHAR window
ENCODING 57363
SWIDTH 693 0
DWIDTH 13 0
BBX 11 11 -1 0
BITMAP
FFE0
8E20
C020
C060
C060
C060
C020
FFE0
0400
0E00
3F80
ENDCHAR
STARTCHAR char57364
ENCODING 57364
SWIDTH 693 0
DWIDTH 13 0
BBX 7 9 1 1
BITMAP
10
FE
C0
C0
FE
06
06
FE
10
ENDCHAR
STARTCHAR char57365
ENCODING 57365
SWIDTH 693 0
DWIDTH 13 0
BBX 11 11 -1 0
BITMAP
1F00
3F80
7BC0
FBE0
FBE0
FBE0
F860
FFE0
7FC0
3F80
1F00
ENDCHAR
STARTCHAR char57365
ENCODING 57366
SWIDTH 693 0
DWIDTH 13 0
BBX 11 11 -1 0
BITMAP
1F00
3180
64C0
C460
8420
8420
8720
C060
60C0
3180
1F00
ENDCHAR
STARTCHAR char57365
ENCODING 57367
SWIDTH 693 0
DWIDTH 13 0
BBX 11 11 -1 0
BITMAP
FFE0
FFE0
FBE0
FBE0
FBE0
FBE0
F860
FFE0
FFE0
FFE0
FFE0
ENDCHAR
STARTCHAR char57365
ENCODING 57368
SWIDTH 693 0
DWIDTH 13 0
BBX 11 11 -1 0
BITMAP
FFE0
C060
8420
8420
8420
8420
87A0
8020
8020
C060
FFE0
ENDCHAR
STARTCHAR char57365
ENCODING 57369
SWIDTH 693 0
DWIDTH 13 0
BBX 11 11 -1 0
BITMAP
3180
FFE0
FFE0
8020
B9A0
8020
AAA0
8020
AAA0
8020
FFE0
ENDCHAR
STARTCHAR char57365
ENCODING 57381
SWIDTH 693 0
DWIDTH 13 0
BBX 13 14 -2 -1
BITMAP
E738
E738
8200
7FF8
C018
C018
C018
C018
C018
C018
FFF0
0208
E738
E738
ENDCHAR
STARTCHAR char57365
ENCODING 57382
SWIDTH 693 0
DWIDTH 13 0
BBX 13 14 -2 -1
BITMAP
E738
E738
8200
7FF8
F018
F018
F018
F018
F018
F018
FFF0
0208
E738
E738
ENDCHAR
STARTCHAR char57365
ENCODING 57383
SWIDTH 693 0
DWIDTH 13 0
BBX 13 14 -2 -1
BITMAP
E738
E738
8200
7FF8
FF18
FF18
FF18
FF18
FF18
FF18
FFF0
0208
E738
E738
ENDCHAR
STARTCHAR char57365
ENCODING 57384
SWIDTH 693 0
DWIDTH 13 0
BBX 13 14 -2 -1
BITMAP
E738
E738
8200
7FF8
FFD8
FFD8
FFD8
FFD8
FFD8
FFD8
FFF0
0208
E738
E738
ENDCHAR
STARTCHAR char57385
ENCODING 57385
SWIDTH 693 0
DWIDTH 13 0
BBX 11 14 -1 -1
BITMAP
1F00
1F00
7FE0
8020
8020
8020
8020
8020
8020
8020
8020
AAA0
9520
FFC0
ENDCHAR
STARTCHAR char57385
ENCODING 57386
SWIDTH 693 0
DWIDTH 13 0
BBX 11 14 -1 -1
BITMAP
1F00
1F00
7FE0
8020
8020
8020
8020
8020
8020
AAA0
9520
AAA0
9520
FFC0
ENDCHAR
STARTCHAR char57385
ENCODING 57387
SWIDTH 693 0
DWIDTH 13 0
BBX 11 14 -1 -1
BITMAP
1F00
1F00
7FE0
8020
8020
8020
9520
AAA0
9520
AAA0
9520
AAA0
9520
FFC0
ENDCHAR
STARTCHAR char57385
ENCODING 57388
SWIDTH 693 0
DWIDTH 13 0
BBX 11 14 -1 -1
BITMAP
1F00
1F00
7FE0
AAA0
9520
AAA0
9520
AAA0
9520
AAA0
9520
AAA0
9520
FFC0
ENDCHAR
STARTCHAR char57389
ENCODING 57389
SWIDTH 693 0
DWIDTH 13 0
BBX 11 13 -1 -1
BITMAP
3180
3180
3180
0000
FFE0
FFE0
FFE0
7FC0
3F80
3F80
0E00
0E00
0E00
ENDCHAR
STARTCHAR char57365
ENCODING 57397
SWIDTH 693 0
DWIDTH 13 0
BBX 13 2 -2 1
BITMAP
E738
E738
ENDCHAR
STARTCHAR char57365
ENCODING 57398
SWIDTH 693 0
DWIDTH 13 0
BBX 13 5 -2 1
BITMAP
E000
E000
E000
E738
E738
ENDCHAR
STARTCHAR char57365
ENCODING 57399
SWIDTH 693 0
DWIDTH 13 0
BBX 13 8 -2 1
BITMAP
0700
0700
0700
E700
E700
E700
E738
E738
ENDCHAR
STARTCHAR char57365
ENCODING 57400
SWIDTH 693 0
DWIDTH 13 0
BBX 13 11 -2 1
BITMAP
0038
0038
0038
0738
0738
0738
E738
E738
E738
E738
E738
ENDCHAR
STARTCHAR char57365
ENCODING 57413
SWIDTH 693 0
DWIDTH 13 0
BBX 13 13 -2 -1
BITMAP
FFF8
FFF8
F578
EAB8
D558
EAB8
FFF8
FFF8
E038
EFB8
EFB8
EFB8
6FB8
ENDCHAR
STARTCHAR char57365
ENCODING 57414
SWIDTH 693 0
DWIDTH 13 0
BBX 13 13 -2 -1
BITMAP
FFF8
FFF8
F578
EAB8
D558
EAB8
FFF8
FFF8
E038
E3B8
E3B8
E3B8
63B8
ENDCHAR
STARTCHAR char57365
ENCODING 57415
SWIDTH 693 0
DWIDTH 13 0
BBX 13 13 -2 -1
BITMAP
FFF8
FFF8
F578
EAB8
D558
EAB8
FFF8
FFF8
E038
E0B8
E0B8
E0B8
60B8
ENDCHAR
STARTCHAR char57365
ENCODING 57416
SWIDTH 693 0
DWIDTH 13 0
BBX 13 13 -2 -1
BITMAP
FFF8
FFF8
F578
EAB8
D558
EAB8
FFF8
FFF8
E038
E038
E038
E038
6038
ENDCHAR
STARTCHAR char57429
ENCODING 57429
SWIDTH 693 0
DWIDTH 13 0
BBX 7 11 -2 0
BITMAP
06
0E
1E
FE
FE
FE
FE
FE
1E
0E
06
ENDCHAR
STARTCHAR char57429
ENCODING 57430
SWIDTH 693 0
DWIDTH 13 0
BBX 9 11 -2 0
BITMAP
0600
0E00
1E00
FE00
FE80
FE80
FE80
FE00
1E00
0E00
0600
ENDCHAR
STARTCHAR char57429
ENCODING 57431
SWIDTH 693 0
DWIDTH 13 0
BBX 11 11 -2 0
BITMAP
0600
0E00
1E40
FE20
FEA0
FEA0
FEA0
FE20
1E40
0E00
0600
ENDCHAR
STARTCHAR char57429
ENCODING 57432
SWIDTH 693 0
DWIDTH 13 0
BBX 13 11 -2 0
BITMAP
0610
0E10
1E48
FE28
FEA8
FEA8
FEA8
FE28
1E48
0E10
0610
ENDCHAR
ENDFONT
